<svg xmlns="http://www.w3.org/2000/svg" fill="#ccc"  xmlns:xlink="http://www.w3.org/1999/xlink" version="1.1" style="" xml:space="preserve" width="462" height="417.8181828690624"><rect id="backgroundrect" width="100%" height="100%" x="0" y="0" fill="none" stroke="none"/>
















<g class="currentLayer" style=""><title>Layer 1</title><g id="XMLID_236_" class="">
	<path id="XMLID_237_" d="M51.665561237335204,292.1088188428879 c-4.33,-29.944 7.522,-64.096 26.089,-82.858 c22.998,-23.241 26.123,-41.97 23.885,-67.358 c-0.4,-4.546 4.797,-7.535 8.444,-4.792 c23.188,17.434 32.438,57.426 22.962,87.991 c-1.201,3.872 2.23,7.631 6.189,6.755 c8.421,-1.864 20.528,-6.886 26.764,-20.396 c1.149,-2.489 3.933,-3.8760000000000003 6.523,-2.977 c13.104,4.551 23.528,16.378 30.248,31.801 c14.232,-20.294 26.668,-42.929 38.149,-65.009 c-8.763,-17.975 -22.002,-35.508 -40.821,-51.208 c-62.94,-52.506 -48.02,-98.372 -37.865,-116.65 c2.115,-3.806 -1.046,-8.418 -5.361,-7.832 c-20.77,2.822 -64.638,17.344 -74.814,89.033 c-0.021000000000000015,0.1480000000000001 -0.022000000000000026,0.2990000000000002 -0.04100000000000003,0.4470000000000003 C69.09356123733521,77.70181884288787 50.6325612373352,75.59981884288788 36.234561237335214,76.10681884288788 c-5.481,0.19300000000000014 -7.094,7.674 -2.169,10.086 c58.337,28.571 -16.112,85.041 -29.745,133.146 c-7.909,27.907 -4.109,48.708 4.536,64.059 C23.311561237335205,281.2288188428879 26.573561237335205,286.45181884288786 51.665561237335204,292.1088188428879 z"/>
	<path id="XMLID_441_" d="M459.6685612373352,55.13381884288788 c1.184,-4.7540000000000004 -1.56,-9.592 -6.25,-11.008 L409.2815612373352,30.801818842887876 c-5.288,-1.597 -10.828,1.842 -11.721,7.327 c-3.98,24.457 -9.95,45.45 -15.841,62.114 c-4.027,11.393 -8.016,20.757 -11.309,27.822 c-8.274000000000001,-2.923 -16.789,-4.546 -25.344,-4.546 c-20.498,0 -41.216,9.291 -59.345,32.195 c-11.573,14.621 -58.154,130.555 -114.494,155.38 c-26.671,11.752 -53.043,15.905 -76.988,15.905 c-31.202,0 -58.286,-7.048 -76.582,-13.52 c-8.393,-2.9690000000000003 -15.728,6.633 -10.577,13.944 c19.93,28.288 63.431,72.698 145.863,86.544 c11.378,1.911 22.698,2.813 33.872,2.813 c98.388,0 186.652,-69.763 225.763,-134.208 c24.371,-40.158 34.048,-86.894 4.914,-121.502 c5.5760000000000005,-8.598 10.623,-18.04 15.143,-27.702 C446.9045612373352,102.87081884288789 455.9165612373352,70.20581884288788 459.6685612373352,55.13381884288788 z"/>
</g><g id="svg_1" class="">
</g><g id="svg_2" class="">
</g><g id="svg_3" class="">
</g><g id="svg_4" class="">
</g><g id="svg_5" class="">
</g><g id="svg_6" class="">
</g><g id="svg_7" class="">
</g><g id="svg_8" class="">
</g><g id="svg_9" class="">
</g><g id="svg_10" class="">
</g><g id="svg_11" class="">
</g><g id="svg_12" class="">
</g><g id="svg_13" class="">
</g><g id="svg_14" class="">
</g><g id="svg_15" class="">
</g></g></svg>