<svg xmlns="http://www.w3.org/2000/svg" fill="#ccc" width="24" height="24" role="img"><rect id="backgroundrect" width="100%" height="100%" x="0" y="0" fill="none" stroke="none"/><g class="currentLayer" style=""><title>Layer 1</title><path d="M23.546,10.929972751640477 L13.067,0.45197275164047795 a1.55,1.55 0 0 0 -2.188,0 L8.708,2.626972751640478 l2.7600000000000002,2.7600000000000002 a1.838,1.838 0 0 1 2.327,2.341 l2.6580000000000004,2.66 a1.838,1.838 0 0 1 1.9,3.039 a1.8370000000000002,1.8370000000000002 0 0 1 -2.6,0 a1.846,1.846 0 0 1 -0.404,-1.996 L12.86,8.954972751640478 v6.525 c0.17600000000000018,0.08600000000000013 0.3420000000000005,0.203 0.4880000000000003,0.3480000000000006 a1.848,1.848 0 0 1 0,2.6 a1.844,1.844 0 0 1 -2.609,0 a1.834,1.834 0 0 1 0,-2.598 c0.1820000000000002,-0.1800000000000002 0.38700000000000045,-0.3160000000000004 0.6050000000000006,-0.406 V8.834972751640478 a1.834,1.834 0 0 1 -0.996,-2.41 L7.636,3.6999727516404786 L0.45,10.880972751640478 c-0.6000000000000006,0.6050000000000006 -0.6000000000000006,1.584 0,2.189 l10.48,10.477 a1.545,1.545 0 0 0 2.186,0 l10.43,-10.43 a1.544,1.544 0 0 0 0,-2.187 " id="svg_1" class=""/></g></svg>