<svg xmlns="http://www.w3.org/2000/svg" fill="#A1A1A1" width="20" height="19.5"><rect id="backgroundrect" width="100%" height="100%" x="0" y="0" fill="none" stroke="none"/><g class="currentLayer" style=""><title>Layer 1</title><path fill-rule="evenodd" clip-rule="evenodd" d="M9.973999954223633,0 c-5.509,0 -9.974,4.465 -9.974,9.974 c0,4.406 2.857,8.145 6.821,9.465 c0.4990000000000001,0.09000000000000004 0.6790000000000004,-0.21700000000000005 0.6790000000000004,-0.4810000000000001 c0,-0.23700000000000004 -0.008000000000000004,-0.8650000000000002 -0.011000000000000006,-1.6960000000000004 c-2.775,0.6020000000000002 -3.361,-1.338 -3.361,-1.338 c-0.452,-1.1520000000000001 -1.107,-1.459 -1.107,-1.459 c-0.905,-0.6190000000000002 0.06900000000000003,-0.6050000000000002 0.06900000000000003,-0.6050000000000002 c1.002,0.07 1.5270000000000001,1.028 1.5270000000000001,1.028 c0.8900000000000002,1.524 2.3360000000000003,1.084 2.902,0.8290000000000002 c0.09100000000000005,-0.6450000000000002 0.3510000000000001,-1.085 0.6350000000000002,-1.334 c-2.214,-0.251 -4.542,-1.107 -4.542,-4.93 c0,-1.087 0.3890000000000001,-1.979 1.024,-2.6750000000000007 c-0.101,-0.253 -0.4460000000000001,-1.268 0.09900000000000006,-2.64 c0,0 0.8370000000000002,-0.269 2.742,1.021 a9.582,9.582 0 0 1 2.496,-0.3360000000000002 a9.554,9.554 0 0 1 2.496,0.3360000000000002 c1.9060000000000001,-1.291 2.742,-1.021 2.742,-1.021 c0.545,1.372 0.203,2.387 0.09900000000000006,2.64 c0.6400000000000002,0.6960000000000004 1.024,1.5870000000000002 1.024,2.6750000000000007 c0,3.833 -2.33,4.675 -4.552,4.922 c0.3550000000000001,0.3080000000000001 0.6750000000000004,0.916 0.6750000000000004,1.846 c0,1.334 -0.012000000000000004,2.41 -0.012000000000000004,2.737 c0,0.267 0.17800000000000005,0.5770000000000002 0.6870000000000004,0.4790000000000001 C17.093999954223634,18.115 19.947999954223633,14.379000000000001 19.947999954223633,9.974 C19.947999954223633,4.465 15.482999954223633,0 9.973999954223633,0 z" id="svg_1" class=""/></g></svg>