<svg xmlns="http://www.w3.org/2000/svg" fill="#ccc" width="32" height="32" style=""><rect id="backgroundrect" width="100%" height="100%" x="0" y="0" fill="none" stroke="none"/>
  
<g class="currentLayer" style=""><title>Layer 1</title><path d="M0,0 h32 v32 h-32 zM29.38,24.37 c-0.234,-1.464 -1.188,-2.688 -4.005,-3.833 c-0.979,-0.458 -2.073,-0.781 -2.396,-1.521 c-0.12000000000000001,-0.43800000000000006 -0.14100000000000001,-0.6770000000000002 -0.06300000000000001,-0.9380000000000001 c0.203,-0.8650000000000001 1.219,-1.12 2.021,-0.8800000000000001 c0.521,0.16100000000000003 1,0.557 1.302,1.198 c1.3800000000000001,-0.901 1.3800000000000001,-0.901 2.339,-1.5 c-0.35900000000000004,-0.557 -0.536,-0.802 -0.781,-1.036 c-0.8390000000000001,-0.9430000000000001 -1.9580000000000002,-1.4220000000000002 -3.776,-1.3800000000000001 l-0.9430000000000001,0.12000000000000001 c-0.901,0.21900000000000003 -1.7600000000000002,0.6980000000000002 -2.281,1.339 c-1.516,1.719 -1.078,4.719 0.7600000000000001,5.964 c1.818,1.359 4.479,1.6560000000000001 4.823,2.938 c0.31800000000000006,1.5630000000000002 -1.161,2.063 -2.625,1.8800000000000001 c-1.078,-0.24000000000000002 -1.677,-0.781 -2.339,-1.7810000000000001 l-2.438,1.401 c0.276,0.6410000000000001 0.5990000000000001,0.917 1.078,1.479 c2.318,2.339 8.12,2.219 9.161,-1.339 c0.036000000000000004,-0.12000000000000001 0.31800000000000006,-0.9430000000000001 0.09900000000000003,-2.198 zM17.401,14.708 h-2.995 c0,2.583 -0.016000000000000004,5.151 -0.016000000000000004,7.74 c0,1.641 0.08300000000000002,3.151 -0.18200000000000002,3.615 c-0.44300000000000006,0.917 -1.573,0.802 -2.089,0.6410000000000001 c-0.526,-0.26 -0.797,-0.6200000000000001 -1.104,-1.141 c-0.08900000000000002,-0.14100000000000001 -0.15100000000000002,-0.26 -0.17200000000000001,-0.26 l-2.432,1.5 c0.406,0.8390000000000001 1,1.5630000000000002 1.766,2.021 c1.141,0.6820000000000002 2.672,0.901 4.276,0.542 c1.042,-0.30200000000000005 1.943,-0.922 2.411,-1.8800000000000001 c0.6820000000000002,-1.24 0.536,-2.7600000000000002 0.531,-4.464 c0.016000000000000004,-2.74 0,-5.479 0,-8.24 z" id="svg_1" class=""/></g></svg>