<svg xmlns="http://www.w3.org/2000/svg" fill="#A1A1A1" xmlns:xlink="http://www.w3.org/1999/xlink" version="1.1" width="301" height="413" style="" xml:space="preserve"><rect id="backgroundrect" width="100%" height="100%" x="0" y="0" fill="none" stroke="none" style="" class=""/>
















<g class="currentLayer" style=""><title>Layer 1</title><g id="svg_1" class="">
	<g id="svg_2">
		<path d="M152.00354788208008,0 L152.00354788208008,0 c-82.6,0 -149.3,66.7 -149.3,149.3 c0,28.8 9.2,56.3 22,78.899 l97.3,168.399 c6.1,11 18.4,16.5 30,16.5 c11.601,0 23.3,-5.5 30,-16.5 l97.3,-168.299 c12.9,-22.601 22,-49.601 22,-78.901 C301.30354788208007,66.8 234.60354788208008,0 152.00354788208008,0 zM152.00354788208008,193.4 c-30,0 -54.5,-24.5 -54.5,-54.5 s24.5,-54.5 54.5,-54.5 s54.5,24.5 54.5,54.5 C206.50354788208006,169 182.00354788208008,193.4 152.00354788208008,193.4 z" id="svg_3"/>
	</g>
</g><g id="svg_4" class="">
</g><g id="svg_5" class="">
</g><g id="svg_6" class="">
</g><g id="svg_7" class="">
</g><g id="svg_8" class="">
</g><g id="svg_9" class="">
</g><g id="svg_10" class="">
</g><g id="svg_11" class="">
</g><g id="svg_12" class="">
</g><g id="svg_13" class="">
</g><g id="svg_14" class="">
</g><g id="svg_15" class="">
</g><g id="svg_16" class="">
</g><g id="svg_17" class="">
</g><g id="svg_18" class="">
</g></g></svg>