<svg xmlns="http://www.w3.org/2000/svg" fill="#ccc" width="23.545454545454547" height="21.181818181818173"><rect id="backgroundrect" width="100%" height="100%" x="0" y="0" fill="none" stroke="none" style="" class=""/>
    
<g class="currentLayer" style=""><title>Layer 1</title><g id="svg_1" class="">
        <path fill="none" d="M-1.6481093201628036,-3.0111538767814636 h27.03030392473738 v27.03030392473738 H-1.6481093201628036 z" id="svg_2"/>
        <path fill-rule="nonzero" d="M11.867042642205888,12.193392080883314 a1.6893939952960868,1.6893939952960868 0 1 1 0,-3.378787990592173 a1.6893939952960868,1.6893939952960868 0 0 1 0,3.378787990592173 zm-0.5946666863442226,3.372030414610988 c0.1970959661178773,0.23651515934145254 0.3953181948992859,0.46627274270172026 0.5946666863442226,0.6858939620902128 c0.199348491444939,-0.2196212193884914 0.3975707202263469,-0.4482525400852288 0.5946666863442226,-0.6858939620902128 a28.02479385663501,28.02479385663501 0 0 1 -1.1893333726884447,0 zm-2.2468940137437947,-0.14078283294134084 a23.288859356488317,23.288859356488317 0 0 1 -2.573510186167705,-0.41446466017930783 c-0.08446969976480442,0.3941919322357542 -0.14866667158605576,0.7771212378362006 -0.19146465280022387,1.144282866147216 c-0.21398990607083807,1.7828737963691372 0.08446969976480442,2.866338478685693 0.5383535531676864,3.1276314166248214 c0.45388385340288245,0.2624192006026593 1.540727323710031,-0.02139899060708391 2.9789647450387653,-1.0969798342789254 c0.29620708050858024,-0.22187374471555288 0.5946666863442226,-0.4685252680287818 0.8942525548433956,-0.737702044612625 a23.288859356488317,23.288859356488317 0 0 1 -1.646596014081919,-2.022767743701181 zm8.25663158634374,-0.41446466017930783 c-0.8075303297515282,0.18020202616491596 -1.6702475300160642,0.3198585964427266 -2.573510186167705,0.41446466017930783 a23.288859356488317,23.288859356488317 0 0 1 -1.646596014081919,2.022767743701181 c0.2995858684991733,0.27030303924737387 0.5980454743348168,0.5158282998970718 0.8942525548433956,0.737702044612625 c1.438237421328735,1.0755808436718421 2.5250808916358842,1.3593990348815843 2.9789647450387653,1.0969798342789254 c0.45388385340288245,-0.26129293793912806 0.7512171965749936,-1.3447576202556848 0.5394798158312171,-3.1276314166248214 a12.794343857709027,12.794343857709027 0 0 0 -0.19146465280022387,-1.144282866147216 zm1.6330808621195518,-0.43586365078639056 c0.6498535568572282,2.9722071690575813 0.3085959698074194,5.3384850251356335 -1.13527276483897,6.171919396148369 c-1.4438687346463883,0.8334343710127351 -3.663732444465446,-0.05406060784947494 -5.912878983536302,-2.1027323928118618 c-2.249146539070856,2.0486717849623877 -4.469010248889914,2.935040501161067 -5.912878983536302,2.1016061301483315 c-1.4438687346463883,-0.8334343710127351 -1.7851263216961981,-3.1985859644272567 -1.1363990275025004,-6.171919396148369 C1.9187645352389993,13.65077596749207 0.041284675133283495,12.170866827612699 0.041284675133283495,10.503998085587227 s1.877479860105718,-3.1456516192413133 4.7764799560338025,-4.070313266000038 c-0.6487272941936998,-2.9722071690575813 -0.3074697071438886,-5.3384850251356335 1.1363990275025004,-6.171919396148369 c1.4438687346463883,-0.8334343710127351 3.663732444465446,0.05406060784947494 5.912878983536302,2.1027323928118618 c2.249146539070856,-2.0486717849623877 4.469010248889914,-2.935040501161067 5.912878983536302,-2.1016061301483315 c1.4438687346463883,0.8334343710127351 1.7851263216961981,3.1985859644272567 1.1363990275025004,6.171919396148369 C21.81532074917277,7.357220203682383 23.692800609278493,8.837129343561756 23.692800609278493,10.503998085587227 s-1.877479860105718,3.1456516192413133 -4.7764799560338025,4.070313266000038 zm-8.244242697044903,-11.013722586666953 a12.794343857709027,12.794343857709027 0 0 0 -0.8931262921798659,-0.737702044612625 C8.339587980027659,1.7473058766358474 7.2527445097205145,1.4634876854261045 6.798860656317629,1.7259068860287634 c-0.45388385340288245,0.26129293793912806 -0.7512171965749936,1.3447576202556848 -0.5394798158312171,3.1276314166248214 c0.0450505065412291,0.3682878909745481 0.10812121569894972,0.7500909339114636 0.19146465280022387,1.144282866147216 a23.288859356488317,23.288859356488317 0 0 1 2.5746364488312357,-0.41446466017930783 c0.5349747651770942,-0.7354495192855648 1.0868434703071492,-1.4123333800675284 1.646596014081919,-2.022767743701181 zm4.037651648757647,2.022767743701181 c0.9032626561516405,0.09460606373658137 1.7659798564161795,0.23538889667792195 2.573510186167705,0.41446466017930783 c0.08446969976480442,-0.3941919322357542 0.14866667158605576,-0.7771212378362006 0.19146465280022387,-1.144282866147216 c0.21398990607083807,-1.7828737963691372 -0.08446969976480442,-2.866338478685693 -0.5383535531676864,-3.1276314166248214 c-0.45388385340288245,-0.2624192006026593 -1.540727323710031,0.02139899060708391 -2.9789647450387653,1.0969798342789254 a12.794343857709027,12.794343857709027 0 0 0 -0.8942525548433956,0.737702044612625 c0.5597525437747706,0.6104343636336526 1.111621248904825,1.2873182244156178 1.646596014081919,2.022767743701181 zm-2.2468940137437947,-0.14078283294134084 c-0.1970959661178773,-0.23651515934145254 -0.3953181948992859,-0.46627274270172026 -0.5946666863442226,-0.6858939620902128 c-0.199348491444939,0.2196212193884914 -0.3975707202263469,0.4482525400852288 -0.5946666863442226,0.6858939620902128 a28.025920119298544,28.025920119298544 0 0 1 1.1893333726884447,0 zm-4.680747629633691,8.106838652094153 a28.025920119298544,28.025920119298544 0 0 1 -0.5946666863442226,-1.029404074467082 c-0.10699495303541914,0.28944950452739604 -0.20610606742612295,0.5743939584006693 -0.29620708050858024,0.8570858869468828 c0.28944950452739604,0.06307070915772063 0.5867828476995094,0.1205101049977876 0.8897475041892742,0.17231818752020156 zm2.175939465941359,0.26354546326618955 a25.78803620686299,25.78803620686299 0 0 0 3.8202829546962165,0 A25.78803620686299,25.78803620686299 0 0 0 15.687325596902099,10.503998085587227 a25.78803620686299,25.78803620686299 0 0 0 -1.9101414773481113,-3.308959705453268 a25.78803620686299,25.78803620686299 0 0 0 -3.8202829546962165,0 A25.78803620686299,25.78803620686299 0 0 0 8.04675968750967,10.503998085587227 a25.78803620686299,25.78803620686299 0 0 0 1.9101414773481113,3.308959705453268 zm6.590889106981799,-5.3249698731732655 c0.10699495303541914,-0.28944950452739604 0.20610606742612295,-0.5743939584006693 0.29620708050858024,-0.8570858869468828 a20.243445114301238,20.243445114301238 0 0 0 -0.8897475041892742,-0.17231818752020156 a28.025920119298544,28.025920119298544 0 0 1 0.5935404236806936,1.029404074467082 zM5.255880807280533,8.06789194437027 c-0.3829293056004478,0.12388889298837974 -0.74558588325734,0.2590404126120668 -1.0857172076436186,0.4054545588710613 C2.5201887975644084,9.180639455938625 1.730678670429371,9.980285947045438 1.730678670429371,10.503998085587227 c0,0.5237121385417871 0.7883838644715078,1.3233586296486008 2.4394849292075484,2.0306515823458957 c0.3401313243862793,0.14641414625899454 0.7027879020431745,0.2815656658826822 1.0857172076436186,0.4054545588710613 c0.2500303113038213,-0.7883838644715078 0.5597525437747706,-1.6060505581948132 0.9291666974128475,-2.436106141216957 a23.288859356488317,23.288859356488317 0 0 1 -0.9291666974128475,-2.436106141216957 zm1.6330808621195518,-0.43698991344992233 c0.09122727574598923,0.2815656658826822 0.1903383901366933,0.567636382419486 0.2973333431721114,0.8559596242833527 a28.025920119298544,28.025920119298544 0 0 1 0.5946666863442226,-1.0282778118035516 c-0.30409091915329606,0.05180808252241343 -0.6014242623254077,0.10924747836248053 -0.8908737668528036,0.17231818752020156 zm11.589242807731152,5.309202195883835 c0.3829293056004478,-0.12388889298837974 0.74558588325734,-0.2590404126120668 1.0857172076436186,-0.4054545588710613 C21.213896486847368,11.82735671523583 22.003406613982406,11.027710224129017 22.003406613982406,10.503998085587227 c0,-0.5237121385417871 -0.7883838644715078,-1.3233586296486008 -2.4394849292075484,-2.0306515823458957 a12.794343857709027,12.794343857709027 0 0 0 -1.0857172076436186,-0.4054545588710613 c-0.2500303113038213,0.7883838644715078 -0.5597525437747706,1.6060505581948132 -0.9291666974128475,2.436106141216957 c0.3694141536380784,0.8300555830221437 0.679136386109027,1.646596014081919 0.9291666974128475,2.436106141216957 zm-1.6330808621195518,0.43698991344992233 c-0.09122727574598923,-0.2815656658826822 -0.1903383901366933,-0.567636382419486 -0.2973333431721114,-0.8559596242833527 a28.025920119298544,28.025920119298544 0 0 1 -0.5946666863442226,1.0282778118035516 c0.30409091915329606,-0.05180808252241343 0.6014242623254077,-0.10924747836248053 0.8908737668528036,-0.17231818752020156 z" id="svg_3"/>
    </g></g></svg>