<svg xmlns="http://www.w3.org/2000/svg" fill="#ccc" width="32" height="30.4"><rect id="backgroundrect" width="100%" height="100%" x="0" y="0" fill="none" stroke="none"/>
  
<g class="currentLayer" style=""><title>Layer 1</title><path d="M22.17485280227661,21.17699993133545 c1.161,-0.09900000000000003 2.057,-1.12 2,-2.339 c-0.06300000000000001,-1.219 -1.063,-2.197 -2.276,-2.197 h-0.08400000000000002 c-1.255,0.04100000000000001 -2.239,1.099 -2.197,2.359 c0.04100000000000001,0.6410000000000001 0.30100000000000005,1.1560000000000001 0.6610000000000001,1.536 c-1.401,2.7190000000000003 -3.495,4.715 -6.6770000000000005,6.396 c-2.135,1.115 -4.391,1.537 -6.588,1.235 c-1.839,-0.255 -3.276,-1.077 -4.156,-2.396 c-1.319,-2 -1.439,-4.151 -0.3390000000000001,-6.312 c0.801,-1.557 2,-2.6990000000000003 2.7960000000000003,-3.2560000000000002 c-0.19700000000000004,-0.52 -0.43700000000000006,-1.395 -0.557,-2.057 c-5.916,4.235 -5.312,10.032 -3.515,12.767 c1.339,2 4.072,3.276 7.067,3.276 c0.803,0 1.641,-0.05700000000000001 2.459,-0.261 c5.199,-1 9.131,-4.115 11.385,-8.708 zM29.30485280227661,16.18299993133545 c-3.093,-3.636 -7.651,-5.636 -12.843,-5.636 h-0.6830000000000002 c-0.3330000000000001,-0.7350000000000001 -1.115,-1.197 -1.995,-1.197 h-0.05700000000000001 c-1.26,0 -2.24,1.083 -2.199,2.339 c0.04300000000000001,1.197 1.057,2.197 2.276,2.197 h0.1 c0.9,-0.04100000000000001 1.677,-0.5990000000000001 2,-1.401 h0.7390000000000001 c3.079,0 5.991,0.901 8.652000000000001,2.657 c2.031,1.3370000000000002 3.495,3.099 4.312,5.197 c0.7190000000000001,1.713 0.6770000000000002,3.396 -0.06300000000000001,4.797 c-1.135,2.192 -3.057,3.353 -5.588,3.353 c-1.5990000000000002,0 -3.156,-0.5 -3.959,-0.8590000000000001 c-0.47900000000000004,0.3960000000000001 -1.2810000000000001,1.057 -1.86,1.459 c1.7610000000000001,0.796 3.537,1.255 5.256,1.255 c3.896,0 6.792,-2.193 7.891,-4.312 c1.197,-2.396 1.099,-6.433 -1.959,-9.891 zM8.648852802276611,21.89599993133545 c0.04300000000000001,1.197 1.057,2.197 2.281,2.197 h0.07900000000000001 c1.2810000000000001,-0.04100000000000001 2.255,-1.099 2.197,-2.359 c0,-1.199 -1.036,-2.199 -2.255,-2.199 h-0.08400000000000002 c-0.07700000000000001,0 -0.19700000000000004,0 -0.30100000000000005,0.04300000000000001 c-1.6560000000000001,-2.797 -2.355,-5.797 -2.095,-9.032 c0.15700000000000003,-2.4370000000000003 0.9590000000000001,-4.552 2.396,-6.312 c1.199,-1.495 3.453,-2.24 4.995,-2.276 c4.313,-0.08400000000000002 6.115,5.296 6.251,7.432 l2,0.5990000000000001 c-0.464,-6.552 -4.536,-9.989 -8.432,-9.989 c-3.656,0 -7.032,2.656 -8.391,6.552 c-1.855,5.199 -0.6360000000000001,10.188 1.6400000000000001,14.188 c-0.19700000000000004,0.255 -0.31700000000000006,0.7190000000000001 -0.281,1.1560000000000001 z" id="svg_1" class=""/></g></svg>