<svg xmlns="http://www.w3.org/2000/svg" fill="#00adb5" xmlns:xlink="http://www.w3.org/1999/xlink" version="1.1" enable-background="new 0 0 512 512" width="512" height="384"><rect id="backgroundrect" width="100%" height="100%" x="0" y="0" fill="none" stroke="none"/>
  
<g class="currentLayer" style=""><title>Layer 1</title><g id="svg_1" class="">
    <path d="M496,80 h-80 v-16 c0,-8.836 -7.164,-16 -16,-16 H223.492 l-35.203,-42.242 C185.25,2.1089999999999947 180.75,0 176,0 H16 C7.164,0 0,7.1640000000000015 0,16 v304 c0,35.289 28.711,64 64,64 h384 c35.289,0 64,-28.711 64,-64 V96 C512,87.16399999999999 504.836,80 496,80 zM64,352 c-17.648,0 -32,-14.352 -32,-32 V32 h136.508 l35.203,42.242 C206.75,77.89099999999999 211.25,80 216,80 h168 v240 c0,11.648 3.125,22.578 8.586,32 H64 zM480,320 c0,17.648 -14.352,32 -32,32 s-32,-14.352 -32,-32 V112 h64 V320 z" id="svg_2"/>
    <path d="m144,112 h-64 c-8.836,0 -16,7.164 -16,16 s7.164,16 16,16 h64 c8.836,0 16,-7.164 16,-16 s-7.164,-16 -16,-16 z" id="svg_3"/>
  </g></g></svg>