<svg xmlns="http://www.w3.org/2000/svg" width="34" height="37" fill="#A1A1A1" style="">
    <rect id="backgroundrect" width="100%" height="100%" x="0" y="0" fill="none" stroke="none" style="" class=""/>
    <g class="currentLayer" style="">
        <title>Layer 1</title>
        <path d="M31.756367912775744,7.102807714850574 c1.5181451106071475,1.8217741327285772 2.2755493745803834,3.947177287578583 2.2755493745803834,6.376209464550018 c0,8.803573350191117 -5.008210573673248,11.384420038223267 -9.714460416555406,12.14349259352684 c0.6072580442428591,1.0627015774250037 0.759072555303574,2.2772176659107206 0.759072555303574,3.4917337543964386 v6.222726662158966 c0,0.759072555303574 -0.4554435331821443,1.2145160884857182 -1.0627015774250037,1.2145160884857182 a1.197833175182343,1.197833175182343 0 0 1 -1.2145160884857182,-1.2145160884857182 v-6.222726662158966 a4.1657234518527995,4.1657234518527995 0 0 0 -1.2145160884857182,-3.4917337543964386 l0.759072555303574,-1.9735886437892916 c4.706249842882157,-0.6072580442428591 9.564314196825029,-2.125403154850006 9.564314196825029,-10.321718460798264 c0,-1.9735886437892916 -0.759072555303574,-3.7953627765178677 -2.125403154850006,-5.3135078871250165 l-0.30362902212142956,-1.2128477971553808 a6.7398969745635995,6.7398969745635995 0 0 0 0.15014621973037737,-4.554435331821441 c-0.7574042639732361,0.15014621973037737 -2.2755493745803834,0.4554435331821443 -4.854727771282196,2.2772176659107206 l-0.9125553576946259,0.15014621973037737 a22.19995273280144,22.19995273280144 0 0 0 -10.927308213710784,0 l-0.9125553576946259,-0.15014621973037737 C9.292825149780974,2.8536696964808996 7.774680039173827,2.398226163298757 7.013939192539915,2.398226163298757 c-0.4554435331821443,1.5181451106071475 -0.4554435331821443,3.186436440944672 0.15014621973037737,4.554435331821441 l-0.30196073079109215,1.2128477971553808 c-1.5181451106071475,1.5181451106071475 -2.2772176659107206,3.4917337543964386 -2.2772176659107206,5.3135078871250165 c0,8.044500794887544 4.554435331821441,9.714460416555406 9.56264590549469,10.321718460798264 l0.6072580442428591,1.9735886437892916 c-0.9108870663642886,0.9108870663642886 -1.366330599546433,2.125403154850006 -1.2145160884857182,3.3399192433357237 v6.374541173219681 a1.197833175182343,1.197833175182343 0 0 1 -1.2145160884857182,1.2145160884857182 a1.197833175182343,1.197833175182343 0 0 1 -1.2145160884857182,-1.2145160884857182 V31.998719237477452 c-5.008210573673248,1.0627015774250037 -6.981799217462539,-1.5181451106071475 -8.499944328069686,-3.490065463066101 c-0.759072555303574,-0.9108870663642886 -1.366330599546433,-1.669959621667862 -2.125403154850006,-1.8217741327285772 c-0.15014621973037737,-0.15181451106071486 -0.6072580442428591,-0.759072555303574 -0.4554435331821443,-1.366330599546433 c0.15181451106071486,-0.6072580442428591 0.759072555303574,-1.0627015774250037 1.3679988908767704,-0.759072555303574 c1.5181451106071475,0.30362902212142956 2.427363885641098,1.5181451106071475 3.3365826606750493,2.5808466880321506 c1.3679988908767704,1.8217741327285772 2.7343294904232027,3.490065463066101 6.831652997732162,2.5808466880321506 v-0.6072580442428591 c-0.15014621973037737,-1.2145160884857182 0.15181451106071486,-2.4290321769714356 0.759072555303574,-3.4917337543964386 c-4.554435331821441,-0.9108870663642886 -9.86627492761612,-3.4917337543964386 -9.86627492761612,-12.14349259352684 c0,-2.4290321769714356 0.759072555303574,-4.554435331821441 2.2772176659107206,-6.376209464550018 c-0.4554435331821443,-2.123734863519669 -0.30362902212142956,-4.4009525294303895 0.4554435331821443,-6.222726662158966 l0.759072555303574,-0.6072580442428591 C6.2548666372363435,0.12267678871837262 8.380269792086349,-0.33276674446377186 12.7795540301864,2.398226163298757 a22.810547359704973,22.810547359704973 0 0 1 11.080791016101838,0 C28.112819647318588,-0.4862495468548218 30.390037313229307,-0.03247430500301718 30.693666335350734,0.12100849738803632 l0.759072555303574,0.6072580442428591 c0.759072555303574,2.125403154850006 0.9108870663642886,4.250806309700012 0.30362902212142956,6.374541173219681 z" id="svg_1" class="selected"/>
    </g>
</svg>