<svg xmlns="http://www.w3.org/2000/svg" width="20" height="20" fill="#a1a1a1" style=""><rect id="backgroundrect" width="100%" height="100%" x="0" y="0" fill="none" stroke="none"/>


<g class="currentLayer" style=""><title>Layer 1</title><path d="M6.80184069366455,5.16985 C6.9848006936645515,5.17475 7.187640693664552,5.18465 7.380630693664552,5.61303 C7.508600693664551,5.89821 7.72418069366455,6.423209999999999 7.899790693664551,6.8508700000000005 C8.03649069366455,7.18366 8.148890693664551,7.457509999999999 8.176990693664552,7.51356 C8.241290693664551,7.64156 8.280890693664551,7.7892600000000005 8.196790693664552,7.96156 C8.186890693664552,7.98188 8.17759069366455,8.0013 8.16849069366455,8.02 C8.10109069366455,8.16 8.05309069366455,8.2597 7.939590693664551,8.3899 C7.892980693664551,8.4435 7.84439069366455,8.5022 7.79597069366455,8.5607 C7.710830693664551,8.6636 7.626240693664551,8.7658 7.553740693664551,8.838000000000001 C7.425130693664551,8.9659 7.29152069366455,9.1039 7.439910693664551,9.3599 C7.58839069366455,9.6159 8.107790693664551,10.4579 8.874590693664551,11.1373 C9.69889069366455,11.8712 10.415690693664551,12.1805 10.77809069366455,12.3368 C10.84839069366455,12.3672 10.90539069366455,12.3918 10.94719069366455,12.4126 C11.204490693664551,12.5406 11.357790693664551,12.5209 11.50619069366455,12.3486 C11.65469069366455,12.1762 12.14929069366455,11.6001 12.32249069366455,11.344100000000001 C12.49069069366455,11.0881 12.66379069366455,11.1275 12.901290693664551,11.2161 C13.13869069366455,11.3047 14.405090693664551,11.9251 14.662290693664552,12.0531 C14.713090693664551,12.0784 14.76069069366455,12.1012 14.80479069366455,12.1224 C14.983690693664549,12.2082 15.10539069366455,12.2665 15.15699069366455,12.3535 C15.22129069366455,12.4618 15.22129069366455,12.9739 15.008590693664551,13.5746 C14.79099069366455,14.1752 13.74219069366455,14.7513 13.26729069366455,14.7956 C13.22229069366455,14.799900000000001 13.17759069366455,14.805299999999999 13.131490693664551,14.8108 C12.696290693664551,14.863499999999998 12.14389069366455,14.930299999999999 10.175490693664552,14.1555 C7.75013069366455,13.2018 6.14911069366455,10.8354 5.825420693664551,10.357 C5.799870693664551,10.3192 5.782270693664551,10.2932 5.772870693664551,10.2806 L5.7673906936645505,10.2733 C5.620120693664551,10.0762 4.719170693664551,8.8707 4.719170693664551,7.626850000000001 C4.719170693664551,6.436820000000001 5.305400693664551,5.81726 5.572780693664551,5.53467 C5.589730693664551,5.51676 5.605390693664551,5.50021 5.619550693664551,5.48494 C5.856960693664551,5.22895 6.134030693664551,5.16495 6.30714069366455,5.16495 C6.480340693664552,5.16495 6.653450693664551,5.16495 6.80184069366455,5.16985 z" fill="#a1a1a1" id="svg_1" class=""/><path fill-rule="evenodd" clip-rule="evenodd" d="M0.10007069366455079,19.3314 C0.018250693664550788,19.6284 0.2887406936645509,19.9025 0.5867906936645508,19.8247 L5.194130693664551,18.6213 C6.6484906936645505,19.409 8.28589069366455,19.8275 9.952990693664551,19.8275 H9.95799069366455 C15.44399069366455,19.8275 19.91589069366455,15.381499999999999 19.91589069366455,9.9163 C19.91589069366455,7.26735 18.881890693664552,4.77594 17.002190693664552,2.90491 C15.12239069366455,1.03397 12.62429069366455,0 9.95789069366455,0 C4.471960693664551,0 6.93664550688311e-7,4.44605 6.93664550688311e-7,9.9114 C-0.0006293063354489981,11.65 0.45829069366455055,13.3582 1.3306806936645508,14.8645 L0.10007069366455079,19.3314 zM2.776810693664551,15.262899999999998 C2.883630693664551,14.8752 2.8302606936645507,14.460799999999999 2.628700693664551,14.1127 C1.8885506936645506,12.8348 1.4994706936645508,11.3855 1.5000006936645507,9.9114 C1.5000006936645507,5.28158 5.293270693664551,1.5 9.95789069366455,1.5 C12.22779069366455,1.5 14.345490693664551,2.3769799999999996 15.94399069366455,3.96805 C17.54069069366455,5.55737 18.41589069366455,7.66611 18.41589069366455,9.9163 C18.41589069366455,14.5459 14.622690693664552,18.3275 9.95799069366455,18.3275 H9.952990693664551 C8.53649069366455,18.3275 7.144520693664552,17.9718 5.908550693664551,17.3023 C5.574030693664551,17.1211 5.183150693664551,17.0738 4.815050693664551,17.17 L2.0526506936645506,17.8915 L2.776810693664551,15.262899999999998 z" fill="#a1a1a1" id="svg_2" class=""/></g></svg>