<svg xmlns="http://www.w3.org/2000/svg" fill="#ccc" width="32" height="32"><rect id="backgroundrect" width="100%" height="100%" x="0" y="0" fill="none" stroke="none"/>
  
<g class="currentLayer" style=""><title>Layer 1</title><path d="M19.078000921845437,0.238002614825964 l1.203,0.265 l0.973,0.3490000000000001 l0.787,0.4 l0.5990000000000001,0.42800000000000005 l0.453,0.453 l0.3330000000000001,0.452 l0.21300000000000002,0.43900000000000006 l0.131,0.4 l0.05700000000000001,0.3440000000000001 l0.027000000000000007,0.271 l-0.016000000000000004,0.17200000000000001 v7.12 l-0.06800000000000002,0.8390000000000001 l-0.17200000000000001,0.7350000000000001 l-0.281,0.6150000000000001 l-0.3440000000000001,0.505 l-0.4,0.41100000000000003 l-0.43700000000000006,0.3330000000000001 l-0.46900000000000003,0.256 l-0.46900000000000003,0.18700000000000003 l-0.43700000000000006,0.136 l-0.4,0.08800000000000002 l-0.3440000000000001,0.05700000000000001 l-0.281,0.027000000000000007 h-7.964 l-0.916,0.06700000000000002 l-0.787,0.18300000000000002 l-0.6670000000000001,0.29700000000000004 l-0.547,0.35900000000000004 l-0.44300000000000006,0.42800000000000005 l-0.36000000000000004,0.463 l-0.265,0.48500000000000004 l-0.19900000000000004,0.48900000000000005 l-0.135,0.468 l-0.09300000000000003,0.42800000000000005 l-0.05300000000000001,0.35900000000000004 l-0.025000000000000005,0.281 v4.079 h-2.975 l-0.28,-0.04300000000000001 l-0.37600000000000006,-0.09300000000000003 l-0.42100000000000004,-0.15600000000000003 l-0.46900000000000003,-0.24000000000000002 l-0.47900000000000004,-0.3480000000000001 l-0.47900000000000004,-0.48000000000000004 l-0.46900000000000003,-0.6150000000000001 l-0.42700000000000005,-0.787 l-0.37600000000000006,-0.973 l-0.276,-1.172 l-0.18700000000000003,-1.401 l-0.06800000000000002,-1.6400000000000001 l0.07900000000000001,-1.625 l0.21300000000000002,-1.385 l0.32300000000000006,-1.161 l0.42700000000000005,-0.9480000000000001 l0.48000000000000004,-0.7600000000000001 l0.531,-0.5840000000000001 l0.5630000000000001,-0.44300000000000006 l0.557,-0.31700000000000006 l0.536,-0.21300000000000002 l0.48000000000000004,-0.136 l0.42700000000000005,-0.06800000000000002 l0.31700000000000006,-0.011000000000000003 h0.21300000000000002 l0.08400000000000002,0.011000000000000003 h10.875 v-1.104 h-7.787 l-0.011000000000000003,-3.6670000000000003 l-0.025000000000000005,-0.49500000000000005 l0.06800000000000002,-0.453 l0.14500000000000002,-0.41100000000000003 l0.22400000000000003,-0.37600000000000006 l0.3330000000000001,-0.3430000000000001 l0.41700000000000004,-0.30800000000000005 l0.504,-0.265 l0.5890000000000001,-0.24500000000000002 l0.6770000000000002,-0.19700000000000004 l0.776,-0.16100000000000003 l0.8480000000000001,-0.131 l0.9480000000000001,-0.08300000000000002 l1.027,-0.05200000000000001 l1.12,-0.027000000000000007 l1.6920000000000002,0.06800000000000002 zM10.682000921845436,2.878002614825964 l-0.30800000000000005,0.43700000000000006 l-0.10900000000000001,0.547 l0.10900000000000001,0.548 l0.30800000000000005,0.452 l0.43700000000000006,0.29700000000000004 l0.547,0.12000000000000001 l0.547,-0.12000000000000001 l0.43700000000000006,-0.29700000000000004 l0.30800000000000005,-0.452 l0.10900000000000001,-0.548 l-0.10900000000000001,-0.547 l-0.30800000000000005,-0.43700000000000006 l-0.43700000000000006,-0.29200000000000004 l-0.547,-0.11900000000000002 l-0.547,0.11900000000000002 zM28.135000921845435,8.143002614825964 l0.36900000000000005,0.08400000000000002 l0.42700000000000005,0.15600000000000003 l0.46900000000000003,0.24000000000000002 l0.47900000000000004,0.35900000000000004 l0.48000000000000004,0.46900000000000003 l0.468,0.6250000000000001 l0.42700000000000005,0.785 l0.37100000000000005,0.975 l0.281,1.177 l0.18700000000000003,1.385 l0.06800000000000002,1.6400000000000001 l-0.08300000000000002,1.641 l-0.21500000000000002,1.385 l-0.31700000000000006,1.145 l-0.42700000000000005,0.9480000000000001 l-0.48000000000000004,0.7600000000000001 l-0.536,0.6000000000000001 l-0.557,0.43700000000000006 l-0.5630000000000001,0.32300000000000006 l-0.531,0.21300000000000002 l-0.48000000000000004,0.12000000000000001 l-0.42700000000000005,0.06800000000000002 l-0.31700000000000006,0.025000000000000005 l-0.21300000000000002,-0.015000000000000003 h-10.964 v1.093 h7.787 l0.016000000000000004,3.6830000000000003 l0.025000000000000005,0.47900000000000004 l-0.06800000000000002,0.453 l-0.14500000000000002,0.41100000000000003 l-0.22900000000000004,0.38500000000000006 l-0.3330000000000001,0.3330000000000001 l-0.41100000000000003,0.32400000000000007 l-0.505,0.265 l-0.5890000000000001,0.22900000000000004 l-0.6770000000000002,0.19700000000000004 l-0.776,0.17200000000000001 l-0.8530000000000001,0.12000000000000001 l-0.9430000000000001,0.09300000000000003 l-1.032,0.05200000000000001 l-1.12,0.016000000000000004 l-1.6920000000000002,-0.05200000000000001 l-1.427,-0.18800000000000003 l-1.199,-0.265 l-0.973,-0.3330000000000001 l-0.787,-0.401 l-0.5990000000000001,-0.44300000000000006 l-0.453,-0.453 l-0.3330000000000001,-0.452 l-0.21300000000000002,-0.43900000000000006 l-0.136,-0.4 l-0.05200000000000001,-0.3330000000000001 l-0.027000000000000007,-0.267 l0.011000000000000003,-0.171 v-7.12 l0.06800000000000002,-0.8550000000000001 l0.17700000000000002,-0.7240000000000001 l0.276,-0.6090000000000001 l0.3490000000000001,-0.511 l0.4,-0.42100000000000004 l0.43900000000000006,-0.32300000000000006 l0.468,-0.267 l0.464,-0.18700000000000003 l0.44300000000000006,-0.136 l0.401,-0.07700000000000001 l0.3430000000000001,-0.05200000000000001 l0.453,-0.04300000000000001 h7.787 l0.921,-0.06700000000000002 l0.787,-0.18300000000000002 l0.6670000000000001,-0.281 l0.547,-0.37500000000000006 l0.43900000000000006,-0.42800000000000005 l0.35900000000000004,-0.463 l0.271,-0.48500000000000004 l0.19900000000000004,-0.47900000000000004 l0.135,-0.464 l0.09500000000000003,-0.42700000000000005 l0.05200000000000001,-0.37500000000000006 l0.025000000000000005,-0.281 v-4.079 h2.787 l0.18800000000000003,0.011000000000000003 zM19.504000921845435,27.143002614825964 l-0.30800000000000005,0.44300000000000006 l-0.10400000000000001,0.548 l0.10400000000000001,0.547 l0.30800000000000005,0.43700000000000006 l0.44300000000000006,0.30700000000000005 l0.547,0.10400000000000001 l0.547,-0.10400000000000001 l0.43700000000000006,-0.30700000000000005 l0.30800000000000005,-0.43700000000000006 l0.10900000000000001,-0.547 l-0.10900000000000001,-0.548 l-0.30800000000000005,-0.44300000000000006 l-0.43700000000000006,-0.30700000000000005 l-0.547,-0.10400000000000001 l-0.547,0.10400000000000001 z" id="svg_1" class=""/></g></svg>